<?xml version="1.0" encoding="utf-8" standalone="no"?>
<!DOCTYPE svg PUBLIC "-//W3C//DTD SVG 1.1//EN"
  "http://www.w3.org/Graphics/SVG/1.1/DTD/svg11.dtd">
<svg xmlns:xlink="http://www.w3.org/1999/xlink" width="864pt" height="432pt" viewBox="0 0 864 432" xmlns="http://www.w3.org/2000/svg" version="1.1">
 <metadata>
  <rdf:RDF xmlns:dc="http://purl.org/dc/elements/1.1/" xmlns:cc="http://creativecommons.org/ns#" xmlns:rdf="http://www.w3.org/1999/02/22-rdf-syntax-ns#">
   <cc:Work>
    <dc:type rdf:resource="http://purl.org/dc/dcmitype/StillImage"/>
    <dc:date>2024-08-25T02:34:45.781168</dc:date>
    <dc:format>image/svg+xml</dc:format>
    <dc:creator>
     <cc:Agent>
      <dc:title>Matplotlib v3.9.1, https://matplotlib.org/</dc:title>
     </cc:Agent>
    </dc:creator>
   </cc:Work>
  </rdf:RDF>
 </metadata>
 <defs>
  <style type="text/css">*{stroke-linejoin: round; stroke-linecap: butt}</style>
 </defs>
 <g id="figure_1">
  <g id="patch_1">
   <path d="M 0 432 
L 864 432 
L 864 0 
L 0 0 
z
" style="fill: #ffffff"/>
  </g>
  <g id="axes_1">
   <g id="patch_2">
    <path d="M 108 384.48 
L 777.6 384.48 
L 777.6 51.84 
L 108 51.84 
z
" style="fill: #ffffff"/>
   </g>
   <g id="matplotlib.axis_1">
    <g id="xtick_1">
     <g id="line2d_1">
      <path d="M 138.436364 384.48 
L 138.436364 51.84 
" clip-path="url(#p4f944df038)" style="fill: none; stroke: #b0b0b0; stroke-width: 0.8; stroke-linecap: square"/>
     </g>
     <g id="line2d_2">
      <defs>
       <path id="m0b1fb02767" d="M 0 0 
L 0 3.5 
" style="stroke: #000000; stroke-width: 0.8"/>
      </defs>
      <g>
       <use xlink:href="#m0b1fb02767" x="138.436364" y="384.48" style="stroke: #000000; stroke-width: 0.8"/>
      </g>
     </g>
     <g id="text_1">
      <!-- −10.0 -->
      <g transform="translate(123.113707 399.078438) scale(0.1 -0.1)">
       <defs>
        <path id="DejaVuSans-2212" d="M 678 2272 
L 4684 2272 
L 4684 1741 
L 678 1741 
L 678 2272 
z
" transform="scale(0.015625)"/>
        <path id="DejaVuSans-31" d="M 794 531 
L 1825 531 
L 1825 4091 
L 703 3866 
L 703 4441 
L 1819 4666 
L 2450 4666 
L 2450 531 
L 3481 531 
L 3481 0 
L 794 0 
L 794 531 
z
" transform="scale(0.015625)"/>
        <path id="DejaVuSans-30" d="M 2034 4250 
Q 1547 4250 1301 3770 
Q 1056 3291 1056 2328 
Q 1056 1369 1301 889 
Q 1547 409 2034 409 
Q 2525 409 2770 889 
Q 3016 1369 3016 2328 
Q 3016 3291 2770 3770 
Q 2525 4250 2034 4250 
z
M 2034 4750 
Q 2819 4750 3233 4129 
Q 3647 3509 3647 2328 
Q 3647 1150 3233 529 
Q 2819 -91 2034 -91 
Q 1250 -91 836 529 
Q 422 1150 422 2328 
Q 422 3509 836 4129 
Q 1250 4750 2034 4750 
z
" transform="scale(0.015625)"/>
        <path id="DejaVuSans-2e" d="M 684 794 
L 1344 794 
L 1344 0 
L 684 0 
L 684 794 
z
" transform="scale(0.015625)"/>
       </defs>
       <use xlink:href="#DejaVuSans-2212"/>
       <use xlink:href="#DejaVuSans-31" x="83.789062"/>
       <use xlink:href="#DejaVuSans-30" x="147.412109"/>
       <use xlink:href="#DejaVuSans-2e" x="211.035156"/>
       <use xlink:href="#DejaVuSans-30" x="242.822266"/>
      </g>
     </g>
    </g>
    <g id="xtick_2">
     <g id="line2d_3">
      <path d="M 214.527273 384.48 
L 214.527273 51.84 
" clip-path="url(#p4f944df038)" style="fill: none; stroke: #b0b0b0; stroke-width: 0.8; stroke-linecap: square"/>
     </g>
     <g id="line2d_4">
      <g>
       <use xlink:href="#m0b1fb02767" x="214.527273" y="384.48" style="stroke: #000000; stroke-width: 0.8"/>
      </g>
     </g>
     <g id="text_2">
      <!-- −7.5 -->
      <g transform="translate(202.385866 399.078438) scale(0.1 -0.1)">
       <defs>
        <path id="DejaVuSans-37" d="M 525 4666 
L 3525 4666 
L 3525 4397 
L 1831 0 
L 1172 0 
L 2766 4134 
L 525 4134 
L 525 4666 
z
" transform="scale(0.015625)"/>
        <path id="DejaVuSans-35" d="M 691 4666 
L 3169 4666 
L 3169 4134 
L 1269 4134 
L 1269 2991 
Q 1406 3038 1543 3061 
Q 1681 3084 1819 3084 
Q 2600 3084 3056 2656 
Q 3513 2228 3513 1497 
Q 3513 744 3044 326 
Q 2575 -91 1722 -91 
Q 1428 -91 1123 -41 
Q 819 9 494 109 
L 494 744 
Q 775 591 1075 516 
Q 1375 441 1709 441 
Q 2250 441 2565 725 
Q 2881 1009 2881 1497 
Q 2881 1984 2565 2268 
Q 2250 2553 1709 2553 
Q 1456 2553 1204 2497 
Q 953 2441 691 2322 
L 691 4666 
z
" transform="scale(0.015625)"/>
       </defs>
       <use xlink:href="#DejaVuSans-2212"/>
       <use xlink:href="#DejaVuSans-37" x="83.789062"/>
       <use xlink:href="#DejaVuSans-2e" x="147.412109"/>
       <use xlink:href="#DejaVuSans-35" x="179.199219"/>
      </g>
     </g>
    </g>
    <g id="xtick_3">
     <g id="line2d_5">
      <path d="M 290.618182 384.48 
L 290.618182 51.84 
" clip-path="url(#p4f944df038)" style="fill: none; stroke: #b0b0b0; stroke-width: 0.8; stroke-linecap: square"/>
     </g>
     <g id="line2d_6">
      <g>
       <use xlink:href="#m0b1fb02767" x="290.618182" y="384.48" style="stroke: #000000; stroke-width: 0.8"/>
      </g>
     </g>
     <g id="text_3">
      <!-- −5.0 -->
      <g transform="translate(278.476776 399.078438) scale(0.1 -0.1)">
       <use xlink:href="#DejaVuSans-2212"/>
       <use xlink:href="#DejaVuSans-35" x="83.789062"/>
       <use xlink:href="#DejaVuSans-2e" x="147.412109"/>
       <use xlink:href="#DejaVuSans-30" x="179.199219"/>
      </g>
     </g>
    </g>
    <g id="xtick_4">
     <g id="line2d_7">
      <path d="M 366.709091 384.48 
L 366.709091 51.84 
" clip-path="url(#p4f944df038)" style="fill: none; stroke: #b0b0b0; stroke-width: 0.8; stroke-linecap: square"/>
     </g>
     <g id="line2d_8">
      <g>
       <use xlink:href="#m0b1fb02767" x="366.709091" y="384.48" style="stroke: #000000; stroke-width: 0.8"/>
      </g>
     </g>
     <g id="text_4">
      <!-- −2.5 -->
      <g transform="translate(354.567685 399.078438) scale(0.1 -0.1)">
       <defs>
        <path id="DejaVuSans-32" d="M 1228 531 
L 3431 531 
L 3431 0 
L 469 0 
L 469 531 
Q 828 903 1448 1529 
Q 2069 2156 2228 2338 
Q 2531 2678 2651 2914 
Q 2772 3150 2772 3378 
Q 2772 3750 2511 3984 
Q 2250 4219 1831 4219 
Q 1534 4219 1204 4116 
Q 875 4013 500 3803 
L 500 4441 
Q 881 4594 1212 4672 
Q 1544 4750 1819 4750 
Q 2544 4750 2975 4387 
Q 3406 4025 3406 3419 
Q 3406 3131 3298 2873 
Q 3191 2616 2906 2266 
Q 2828 2175 2409 1742 
Q 1991 1309 1228 531 
z
" transform="scale(0.015625)"/>
       </defs>
       <use xlink:href="#DejaVuSans-2212"/>
       <use xlink:href="#DejaVuSans-32" x="83.789062"/>
       <use xlink:href="#DejaVuSans-2e" x="147.412109"/>
       <use xlink:href="#DejaVuSans-35" x="179.199219"/>
      </g>
     </g>
    </g>
    <g id="xtick_5">
     <g id="line2d_9">
      <path d="M 442.8 384.48 
L 442.8 51.84 
" clip-path="url(#p4f944df038)" style="fill: none; stroke: #b0b0b0; stroke-width: 0.8; stroke-linecap: square"/>
     </g>
     <g id="line2d_10">
      <g>
       <use xlink:href="#m0b1fb02767" x="442.8" y="384.48" style="stroke: #000000; stroke-width: 0.8"/>
      </g>
     </g>
     <g id="text_5">
      <!-- 0.0 -->
      <g transform="translate(434.848437 399.078438) scale(0.1 -0.1)">
       <use xlink:href="#DejaVuSans-30"/>
       <use xlink:href="#DejaVuSans-2e" x="63.623047"/>
       <use xlink:href="#DejaVuSans-30" x="95.410156"/>
      </g>
     </g>
    </g>
    <g id="xtick_6">
     <g id="line2d_11">
      <path d="M 518.890909 384.48 
L 518.890909 51.84 
" clip-path="url(#p4f944df038)" style="fill: none; stroke: #b0b0b0; stroke-width: 0.8; stroke-linecap: square"/>
     </g>
     <g id="line2d_12">
      <g>
       <use xlink:href="#m0b1fb02767" x="518.890909" y="384.48" style="stroke: #000000; stroke-width: 0.8"/>
      </g>
     </g>
     <g id="text_6">
      <!-- 2.5 -->
      <g transform="translate(510.939347 399.078438) scale(0.1 -0.1)">
       <use xlink:href="#DejaVuSans-32"/>
       <use xlink:href="#DejaVuSans-2e" x="63.623047"/>
       <use xlink:href="#DejaVuSans-35" x="95.410156"/>
      </g>
     </g>
    </g>
    <g id="xtick_7">
     <g id="line2d_13">
      <path d="M 594.981818 384.48 
L 594.981818 51.84 
" clip-path="url(#p4f944df038)" style="fill: none; stroke: #b0b0b0; stroke-width: 0.8; stroke-linecap: square"/>
     </g>
     <g id="line2d_14">
      <g>
       <use xlink:href="#m0b1fb02767" x="594.981818" y="384.48" style="stroke: #000000; stroke-width: 0.8"/>
      </g>
     </g>
     <g id="text_7">
      <!-- 5.0 -->
      <g transform="translate(587.030256 399.078438) scale(0.1 -0.1)">
       <use xlink:href="#DejaVuSans-35"/>
       <use xlink:href="#DejaVuSans-2e" x="63.623047"/>
       <use xlink:href="#DejaVuSans-30" x="95.410156"/>
      </g>
     </g>
    </g>
    <g id="xtick_8">
     <g id="line2d_15">
      <path d="M 671.072727 384.48 
L 671.072727 51.84 
" clip-path="url(#p4f944df038)" style="fill: none; stroke: #b0b0b0; stroke-width: 0.8; stroke-linecap: square"/>
     </g>
     <g id="line2d_16">
      <g>
       <use xlink:href="#m0b1fb02767" x="671.072727" y="384.48" style="stroke: #000000; stroke-width: 0.8"/>
      </g>
     </g>
     <g id="text_8">
      <!-- 7.5 -->
      <g transform="translate(663.121165 399.078438) scale(0.1 -0.1)">
       <use xlink:href="#DejaVuSans-37"/>
       <use xlink:href="#DejaVuSans-2e" x="63.623047"/>
       <use xlink:href="#DejaVuSans-35" x="95.410156"/>
      </g>
     </g>
    </g>
    <g id="xtick_9">
     <g id="line2d_17">
      <path d="M 747.163636 384.48 
L 747.163636 51.84 
" clip-path="url(#p4f944df038)" style="fill: none; stroke: #b0b0b0; stroke-width: 0.8; stroke-linecap: square"/>
     </g>
     <g id="line2d_18">
      <g>
       <use xlink:href="#m0b1fb02767" x="747.163636" y="384.48" style="stroke: #000000; stroke-width: 0.8"/>
      </g>
     </g>
     <g id="text_9">
      <!-- 10.0 -->
      <g transform="translate(736.030824 399.078438) scale(0.1 -0.1)">
       <use xlink:href="#DejaVuSans-31"/>
       <use xlink:href="#DejaVuSans-30" x="63.623047"/>
       <use xlink:href="#DejaVuSans-2e" x="127.246094"/>
       <use xlink:href="#DejaVuSans-30" x="159.033203"/>
      </g>
     </g>
    </g>
    <g id="text_10">
     <!-- Delay between Pump and Probe Pulses (ps) -->
     <g transform="translate(334.125 412.756563) scale(0.1 -0.1)">
      <defs>
       <path id="DejaVuSans-44" d="M 1259 4147 
L 1259 519 
L 2022 519 
Q 2988 519 3436 956 
Q 3884 1394 3884 2338 
Q 3884 3275 3436 3711 
Q 2988 4147 2022 4147 
L 1259 4147 
z
M 628 4666 
L 1925 4666 
Q 3281 4666 3915 4102 
Q 4550 3538 4550 2338 
Q 4550 1131 3912 565 
Q 3275 0 1925 0 
L 628 0 
L 628 4666 
z
" transform="scale(0.015625)"/>
       <path id="DejaVuSans-65" d="M 3597 1894 
L 3597 1613 
L 953 1613 
Q 991 1019 1311 708 
Q 1631 397 2203 397 
Q 2534 397 2845 478 
Q 3156 559 3463 722 
L 3463 178 
Q 3153 47 2828 -22 
Q 2503 -91 2169 -91 
Q 1331 -91 842 396 
Q 353 884 353 1716 
Q 353 2575 817 3079 
Q 1281 3584 2069 3584 
Q 2775 3584 3186 3129 
Q 3597 2675 3597 1894 
z
M 3022 2063 
Q 3016 2534 2758 2815 
Q 2500 3097 2075 3097 
Q 1594 3097 1305 2825 
Q 1016 2553 972 2059 
L 3022 2063 
z
" transform="scale(0.015625)"/>
       <path id="DejaVuSans-6c" d="M 603 4863 
L 1178 4863 
L 1178 0 
L 603 0 
L 603 4863 
z
" transform="scale(0.015625)"/>
       <path id="DejaVuSans-61" d="M 2194 1759 
Q 1497 1759 1228 1600 
Q 959 1441 959 1056 
Q 959 750 1161 570 
Q 1363 391 1709 391 
Q 2188 391 2477 730 
Q 2766 1069 2766 1631 
L 2766 1759 
L 2194 1759 
z
M 3341 1997 
L 3341 0 
L 2766 0 
L 2766 531 
Q 2569 213 2275 61 
Q 1981 -91 1556 -91 
Q 1019 -91 701 211 
Q 384 513 384 1019 
Q 384 1609 779 1909 
Q 1175 2209 1959 2209 
L 2766 2209 
L 2766 2266 
Q 2766 2663 2505 2880 
Q 2244 3097 1772 3097 
Q 1472 3097 1187 3025 
Q 903 2953 641 2809 
L 641 3341 
Q 956 3463 1253 3523 
Q 1550 3584 1831 3584 
Q 2591 3584 2966 3190 
Q 3341 2797 3341 1997 
z
" transform="scale(0.015625)"/>
       <path id="DejaVuSans-79" d="M 2059 -325 
Q 1816 -950 1584 -1140 
Q 1353 -1331 966 -1331 
L 506 -1331 
L 506 -850 
L 844 -850 
Q 1081 -850 1212 -737 
Q 1344 -625 1503 -206 
L 1606 56 
L 191 3500 
L 800 3500 
L 1894 763 
L 2988 3500 
L 3597 3500 
L 2059 -325 
z
" transform="scale(0.015625)"/>
       <path id="DejaVuSans-20" transform="scale(0.015625)"/>
       <path id="DejaVuSans-62" d="M 3116 1747 
Q 3116 2381 2855 2742 
Q 2594 3103 2138 3103 
Q 1681 3103 1420 2742 
Q 1159 2381 1159 1747 
Q 1159 1113 1420 752 
Q 1681 391 2138 391 
Q 2594 391 2855 752 
Q 3116 1113 3116 1747 
z
M 1159 2969 
Q 1341 3281 1617 3432 
Q 1894 3584 2278 3584 
Q 2916 3584 3314 3078 
Q 3713 2572 3713 1747 
Q 3713 922 3314 415 
Q 2916 -91 2278 -91 
Q 1894 -91 1617 61 
Q 1341 213 1159 525 
L 1159 0 
L 581 0 
L 581 4863 
L 1159 4863 
L 1159 2969 
z
" transform="scale(0.015625)"/>
       <path id="DejaVuSans-74" d="M 1172 4494 
L 1172 3500 
L 2356 3500 
L 2356 3053 
L 1172 3053 
L 1172 1153 
Q 1172 725 1289 603 
Q 1406 481 1766 481 
L 2356 481 
L 2356 0 
L 1766 0 
Q 1100 0 847 248 
Q 594 497 594 1153 
L 594 3053 
L 172 3053 
L 172 3500 
L 594 3500 
L 594 4494 
L 1172 4494 
z
" transform="scale(0.015625)"/>
       <path id="DejaVuSans-77" d="M 269 3500 
L 844 3500 
L 1563 769 
L 2278 3500 
L 2956 3500 
L 3675 769 
L 4391 3500 
L 4966 3500 
L 4050 0 
L 3372 0 
L 2619 2869 
L 1863 0 
L 1184 0 
L 269 3500 
z
" transform="scale(0.015625)"/>
       <path id="DejaVuSans-6e" d="M 3513 2113 
L 3513 0 
L 2938 0 
L 2938 2094 
Q 2938 2591 2744 2837 
Q 2550 3084 2163 3084 
Q 1697 3084 1428 2787 
Q 1159 2491 1159 1978 
L 1159 0 
L 581 0 
L 581 3500 
L 1159 3500 
L 1159 2956 
Q 1366 3272 1645 3428 
Q 1925 3584 2291 3584 
Q 2894 3584 3203 3211 
Q 3513 2838 3513 2113 
z
" transform="scale(0.015625)"/>
       <path id="DejaVuSans-50" d="M 1259 4147 
L 1259 2394 
L 2053 2394 
Q 2494 2394 2734 2622 
Q 2975 2850 2975 3272 
Q 2975 3691 2734 3919 
Q 2494 4147 2053 4147 
L 1259 4147 
z
M 628 4666 
L 2053 4666 
Q 2838 4666 3239 4311 
Q 3641 3956 3641 3272 
Q 3641 2581 3239 2228 
Q 2838 1875 2053 1875 
L 1259 1875 
L 1259 0 
L 628 0 
L 628 4666 
z
" transform="scale(0.015625)"/>
       <path id="DejaVuSans-75" d="M 544 1381 
L 544 3500 
L 1119 3500 
L 1119 1403 
Q 1119 906 1312 657 
Q 1506 409 1894 409 
Q 2359 409 2629 706 
Q 2900 1003 2900 1516 
L 2900 3500 
L 3475 3500 
L 3475 0 
L 2900 0 
L 2900 538 
Q 2691 219 2414 64 
Q 2138 -91 1772 -91 
Q 1169 -91 856 284 
Q 544 659 544 1381 
z
M 1991 3584 
L 1991 3584 
z
" transform="scale(0.015625)"/>
       <path id="DejaVuSans-6d" d="M 3328 2828 
Q 3544 3216 3844 3400 
Q 4144 3584 4550 3584 
Q 5097 3584 5394 3201 
Q 5691 2819 5691 2113 
L 5691 0 
L 5113 0 
L 5113 2094 
Q 5113 2597 4934 2840 
Q 4756 3084 4391 3084 
Q 3944 3084 3684 2787 
Q 3425 2491 3425 1978 
L 3425 0 
L 2847 0 
L 2847 2094 
Q 2847 2600 2669 2842 
Q 2491 3084 2119 3084 
Q 1678 3084 1418 2786 
Q 1159 2488 1159 1978 
L 1159 0 
L 581 0 
L 581 3500 
L 1159 3500 
L 1159 2956 
Q 1356 3278 1631 3431 
Q 1906 3584 2284 3584 
Q 2666 3584 2933 3390 
Q 3200 3197 3328 2828 
z
" transform="scale(0.015625)"/>
       <path id="DejaVuSans-70" d="M 1159 525 
L 1159 -1331 
L 581 -1331 
L 581 3500 
L 1159 3500 
L 1159 2969 
Q 1341 3281 1617 3432 
Q 1894 3584 2278 3584 
Q 2916 3584 3314 3078 
Q 3713 2572 3713 1747 
Q 3713 922 3314 415 
Q 2916 -91 2278 -91 
Q 1894 -91 1617 61 
Q 1341 213 1159 525 
z
M 3116 1747 
Q 3116 2381 2855 2742 
Q 2594 3103 2138 3103 
Q 1681 3103 1420 2742 
Q 1159 2381 1159 1747 
Q 1159 1113 1420 752 
Q 1681 391 2138 391 
Q 2594 391 2855 752 
Q 3116 1113 3116 1747 
z
" transform="scale(0.015625)"/>
       <path id="DejaVuSans-64" d="M 2906 2969 
L 2906 4863 
L 3481 4863 
L 3481 0 
L 2906 0 
L 2906 525 
Q 2725 213 2448 61 
Q 2172 -91 1784 -91 
Q 1150 -91 751 415 
Q 353 922 353 1747 
Q 353 2572 751 3078 
Q 1150 3584 1784 3584 
Q 2172 3584 2448 3432 
Q 2725 3281 2906 2969 
z
M 947 1747 
Q 947 1113 1208 752 
Q 1469 391 1925 391 
Q 2381 391 2643 752 
Q 2906 1113 2906 1747 
Q 2906 2381 2643 2742 
Q 2381 3103 1925 3103 
Q 1469 3103 1208 2742 
Q 947 2381 947 1747 
z
" transform="scale(0.015625)"/>
       <path id="DejaVuSans-72" d="M 2631 2963 
Q 2534 3019 2420 3045 
Q 2306 3072 2169 3072 
Q 1681 3072 1420 2755 
Q 1159 2438 1159 1844 
L 1159 0 
L 581 0 
L 581 3500 
L 1159 3500 
L 1159 2956 
Q 1341 3275 1631 3429 
Q 1922 3584 2338 3584 
Q 2397 3584 2469 3576 
Q 2541 3569 2628 3553 
L 2631 2963 
z
" transform="scale(0.015625)"/>
       <path id="DejaVuSans-6f" d="M 1959 3097 
Q 1497 3097 1228 2736 
Q 959 2375 959 1747 
Q 959 1119 1226 758 
Q 1494 397 1959 397 
Q 2419 397 2687 759 
Q 2956 1122 2956 1747 
Q 2956 2369 2687 2733 
Q 2419 3097 1959 3097 
z
M 1959 3584 
Q 2709 3584 3137 3096 
Q 3566 2609 3566 1747 
Q 3566 888 3137 398 
Q 2709 -91 1959 -91 
Q 1206 -91 779 398 
Q 353 888 353 1747 
Q 353 2609 779 3096 
Q 1206 3584 1959 3584 
z
" transform="scale(0.015625)"/>
       <path id="DejaVuSans-73" d="M 2834 3397 
L 2834 2853 
Q 2591 2978 2328 3040 
Q 2066 3103 1784 3103 
Q 1356 3103 1142 2972 
Q 928 2841 928 2578 
Q 928 2378 1081 2264 
Q 1234 2150 1697 2047 
L 1894 2003 
Q 2506 1872 2764 1633 
Q 3022 1394 3022 966 
Q 3022 478 2636 193 
Q 2250 -91 1575 -91 
Q 1294 -91 989 -36 
Q 684 19 347 128 
L 347 722 
Q 666 556 975 473 
Q 1284 391 1588 391 
Q 1994 391 2212 530 
Q 2431 669 2431 922 
Q 2431 1156 2273 1281 
Q 2116 1406 1581 1522 
L 1381 1569 
Q 847 1681 609 1914 
Q 372 2147 372 2553 
Q 372 3047 722 3315 
Q 1072 3584 1716 3584 
Q 2034 3584 2315 3537 
Q 2597 3491 2834 3397 
z
" transform="scale(0.015625)"/>
       <path id="DejaVuSans-28" d="M 1984 4856 
Q 1566 4138 1362 3434 
Q 1159 2731 1159 2009 
Q 1159 1288 1364 580 
Q 1569 -128 1984 -844 
L 1484 -844 
Q 1016 -109 783 600 
Q 550 1309 550 2009 
Q 550 2706 781 3412 
Q 1013 4119 1484 4856 
L 1984 4856 
z
" transform="scale(0.015625)"/>
       <path id="DejaVuSans-29" d="M 513 4856 
L 1013 4856 
Q 1481 4119 1714 3412 
Q 1947 2706 1947 2009 
Q 1947 1309 1714 600 
Q 1481 -109 1013 -844 
L 513 -844 
Q 928 -128 1133 580 
Q 1338 1288 1338 2009 
Q 1338 2731 1133 3434 
Q 928 4138 513 4856 
z
" transform="scale(0.015625)"/>
      </defs>
      <use xlink:href="#DejaVuSans-44"/>
      <use xlink:href="#DejaVuSans-65" x="77.001953"/>
      <use xlink:href="#DejaVuSans-6c" x="138.525391"/>
      <use xlink:href="#DejaVuSans-61" x="166.308594"/>
      <use xlink:href="#DejaVuSans-79" x="227.587891"/>
      <use xlink:href="#DejaVuSans-20" x="286.767578"/>
      <use xlink:href="#DejaVuSans-62" x="318.554688"/>
      <use xlink:href="#DejaVuSans-65" x="382.03125"/>
      <use xlink:href="#DejaVuSans-74" x="443.554688"/>
      <use xlink:href="#DejaVuSans-77" x="482.763672"/>
      <use xlink:href="#DejaVuSans-65" x="564.550781"/>
      <use xlink:href="#DejaVuSans-65" x="626.074219"/>
      <use xlink:href="#DejaVuSans-6e" x="687.597656"/>
      <use xlink:href="#DejaVuSans-20" x="750.976562"/>
      <use xlink:href="#DejaVuSans-50" x="782.763672"/>
      <use xlink:href="#DejaVuSans-75" x="841.316406"/>
      <use xlink:href="#DejaVuSans-6d" x="904.695312"/>
      <use xlink:href="#DejaVuSans-70" x="1002.107422"/>
      <use xlink:href="#DejaVuSans-20" x="1065.583984"/>
      <use xlink:href="#DejaVuSans-61" x="1097.371094"/>
      <use xlink:href="#DejaVuSans-6e" x="1158.650391"/>
      <use xlink:href="#DejaVuSans-64" x="1222.029297"/>
      <use xlink:href="#DejaVuSans-20" x="1285.505859"/>
      <use xlink:href="#DejaVuSans-50" x="1317.292969"/>
      <use xlink:href="#DejaVuSans-72" x="1375.845703"/>
      <use xlink:href="#DejaVuSans-6f" x="1414.708984"/>
      <use xlink:href="#DejaVuSans-62" x="1475.890625"/>
      <use xlink:href="#DejaVuSans-65" x="1539.367188"/>
      <use xlink:href="#DejaVuSans-20" x="1600.890625"/>
      <use xlink:href="#DejaVuSans-50" x="1632.677734"/>
      <use xlink:href="#DejaVuSans-75" x="1691.230469"/>
      <use xlink:href="#DejaVuSans-6c" x="1754.609375"/>
      <use xlink:href="#DejaVuSans-73" x="1782.392578"/>
      <use xlink:href="#DejaVuSans-65" x="1834.492188"/>
      <use xlink:href="#DejaVuSans-73" x="1896.015625"/>
      <use xlink:href="#DejaVuSans-20" x="1948.115234"/>
      <use xlink:href="#DejaVuSans-28" x="1979.902344"/>
      <use xlink:href="#DejaVuSans-70" x="2018.916016"/>
      <use xlink:href="#DejaVuSans-73" x="2082.392578"/>
      <use xlink:href="#DejaVuSans-29" x="2134.492188"/>
     </g>
    </g>
   </g>
   <g id="matplotlib.axis_2">
    <g id="ytick_1">
     <g id="line2d_19">
      <path d="M 108 355.078186 
L 777.6 355.078186 
" clip-path="url(#p4f944df038)" style="fill: none; stroke: #b0b0b0; stroke-width: 0.8; stroke-linecap: square"/>
     </g>
     <g id="line2d_20">
      <defs>
       <path id="m837cf3042b" d="M 0 0 
L -3.5 0 
" style="stroke: #000000; stroke-width: 0.8"/>
      </defs>
      <g>
       <use xlink:href="#m837cf3042b" x="108" y="355.078186" style="stroke: #000000; stroke-width: 0.8"/>
      </g>
     </g>
     <g id="text_11">
      <!-- −0.4 -->
      <g transform="translate(76.717187 358.877405) scale(0.1 -0.1)">
       <defs>
        <path id="DejaVuSans-34" d="M 2419 4116 
L 825 1625 
L 2419 1625 
L 2419 4116 
z
M 2253 4666 
L 3047 4666 
L 3047 1625 
L 3713 1625 
L 3713 1100 
L 3047 1100 
L 3047 0 
L 2419 0 
L 2419 1100 
L 313 1100 
L 313 1709 
L 2253 4666 
z
" transform="scale(0.015625)"/>
       </defs>
       <use xlink:href="#DejaVuSans-2212"/>
       <use xlink:href="#DejaVuSans-30" x="83.789062"/>
       <use xlink:href="#DejaVuSans-2e" x="147.412109"/>
       <use xlink:href="#DejaVuSans-34" x="179.199219"/>
      </g>
     </g>
    </g>
    <g id="ytick_2">
     <g id="line2d_21">
      <path d="M 108 286.619093 
L 777.6 286.619093 
" clip-path="url(#p4f944df038)" style="fill: none; stroke: #b0b0b0; stroke-width: 0.8; stroke-linecap: square"/>
     </g>
     <g id="line2d_22">
      <g>
       <use xlink:href="#m837cf3042b" x="108" y="286.619093" style="stroke: #000000; stroke-width: 0.8"/>
      </g>
     </g>
     <g id="text_12">
      <!-- −0.2 -->
      <g transform="translate(76.717187 290.418312) scale(0.1 -0.1)">
       <use xlink:href="#DejaVuSans-2212"/>
       <use xlink:href="#DejaVuSans-30" x="83.789062"/>
       <use xlink:href="#DejaVuSans-2e" x="147.412109"/>
       <use xlink:href="#DejaVuSans-32" x="179.199219"/>
      </g>
     </g>
    </g>
    <g id="ytick_3">
     <g id="line2d_23">
      <path d="M 108 218.16 
L 777.6 218.16 
" clip-path="url(#p4f944df038)" style="fill: none; stroke: #b0b0b0; stroke-width: 0.8; stroke-linecap: square"/>
     </g>
     <g id="line2d_24">
      <g>
       <use xlink:href="#m837cf3042b" x="108" y="218.16" style="stroke: #000000; stroke-width: 0.8"/>
      </g>
     </g>
     <g id="text_13">
      <!-- 0.0 -->
      <g transform="translate(85.096875 221.959219) scale(0.1 -0.1)">
       <use xlink:href="#DejaVuSans-30"/>
       <use xlink:href="#DejaVuSans-2e" x="63.623047"/>
       <use xlink:href="#DejaVuSans-30" x="95.410156"/>
      </g>
     </g>
    </g>
    <g id="ytick_4">
     <g id="line2d_25">
      <path d="M 108 149.700907 
L 777.6 149.700907 
" clip-path="url(#p4f944df038)" style="fill: none; stroke: #b0b0b0; stroke-width: 0.8; stroke-linecap: square"/>
     </g>
     <g id="line2d_26">
      <g>
       <use xlink:href="#m837cf3042b" x="108" y="149.700907" style="stroke: #000000; stroke-width: 0.8"/>
      </g>
     </g>
     <g id="text_14">
      <!-- 0.2 -->
      <g transform="translate(85.096875 153.500126) scale(0.1 -0.1)">
       <use xlink:href="#DejaVuSans-30"/>
       <use xlink:href="#DejaVuSans-2e" x="63.623047"/>
       <use xlink:href="#DejaVuSans-32" x="95.410156"/>
      </g>
     </g>
    </g>
    <g id="ytick_5">
     <g id="line2d_27">
      <path d="M 108 81.241814 
L 777.6 81.241814 
" clip-path="url(#p4f944df038)" style="fill: none; stroke: #b0b0b0; stroke-width: 0.8; stroke-linecap: square"/>
     </g>
     <g id="line2d_28">
      <g>
       <use xlink:href="#m837cf3042b" x="108" y="81.241814" style="stroke: #000000; stroke-width: 0.8"/>
      </g>
     </g>
     <g id="text_15">
      <!-- 0.4 -->
      <g transform="translate(85.096875 85.041032) scale(0.1 -0.1)">
       <use xlink:href="#DejaVuSans-30"/>
       <use xlink:href="#DejaVuSans-2e" x="63.623047"/>
       <use xlink:href="#DejaVuSans-34" x="95.410156"/>
      </g>
     </g>
    </g>
    <g id="text_16">
     <!-- Induced Frequency Shift (THz) -->
     <g transform="translate(70.6375 293.448281) rotate(-90) scale(0.1 -0.1)">
      <defs>
       <path id="DejaVuSans-49" d="M 628 4666 
L 1259 4666 
L 1259 0 
L 628 0 
L 628 4666 
z
" transform="scale(0.015625)"/>
       <path id="DejaVuSans-63" d="M 3122 3366 
L 3122 2828 
Q 2878 2963 2633 3030 
Q 2388 3097 2138 3097 
Q 1578 3097 1268 2742 
Q 959 2388 959 1747 
Q 959 1106 1268 751 
Q 1578 397 2138 397 
Q 2388 397 2633 464 
Q 2878 531 3122 666 
L 3122 134 
Q 2881 22 2623 -34 
Q 2366 -91 2075 -91 
Q 1284 -91 818 406 
Q 353 903 353 1747 
Q 353 2603 823 3093 
Q 1294 3584 2113 3584 
Q 2378 3584 2631 3529 
Q 2884 3475 3122 3366 
z
" transform="scale(0.015625)"/>
       <path id="DejaVuSans-46" d="M 628 4666 
L 3309 4666 
L 3309 4134 
L 1259 4134 
L 1259 2759 
L 3109 2759 
L 3109 2228 
L 1259 2228 
L 1259 0 
L 628 0 
L 628 4666 
z
" transform="scale(0.015625)"/>
       <path id="DejaVuSans-71" d="M 947 1747 
Q 947 1113 1208 752 
Q 1469 391 1925 391 
Q 2381 391 2643 752 
Q 2906 1113 2906 1747 
Q 2906 2381 2643 2742 
Q 2381 3103 1925 3103 
Q 1469 3103 1208 2742 
Q 947 2381 947 1747 
z
M 2906 525 
Q 2725 213 2448 61 
Q 2172 -91 1784 -91 
Q 1150 -91 751 415 
Q 353 922 353 1747 
Q 353 2572 751 3078 
Q 1150 3584 1784 3584 
Q 2172 3584 2448 3432 
Q 2725 3281 2906 2969 
L 2906 3500 
L 3481 3500 
L 3481 -1331 
L 2906 -1331 
L 2906 525 
z
" transform="scale(0.015625)"/>
       <path id="DejaVuSans-53" d="M 3425 4513 
L 3425 3897 
Q 3066 4069 2747 4153 
Q 2428 4238 2131 4238 
Q 1616 4238 1336 4038 
Q 1056 3838 1056 3469 
Q 1056 3159 1242 3001 
Q 1428 2844 1947 2747 
L 2328 2669 
Q 3034 2534 3370 2195 
Q 3706 1856 3706 1288 
Q 3706 609 3251 259 
Q 2797 -91 1919 -91 
Q 1588 -91 1214 -16 
Q 841 59 441 206 
L 441 856 
Q 825 641 1194 531 
Q 1563 422 1919 422 
Q 2459 422 2753 634 
Q 3047 847 3047 1241 
Q 3047 1584 2836 1778 
Q 2625 1972 2144 2069 
L 1759 2144 
Q 1053 2284 737 2584 
Q 422 2884 422 3419 
Q 422 4038 858 4394 
Q 1294 4750 2059 4750 
Q 2388 4750 2728 4690 
Q 3069 4631 3425 4513 
z
" transform="scale(0.015625)"/>
       <path id="DejaVuSans-68" d="M 3513 2113 
L 3513 0 
L 2938 0 
L 2938 2094 
Q 2938 2591 2744 2837 
Q 2550 3084 2163 3084 
Q 1697 3084 1428 2787 
Q 1159 2491 1159 1978 
L 1159 0 
L 581 0 
L 581 4863 
L 1159 4863 
L 1159 2956 
Q 1366 3272 1645 3428 
Q 1925 3584 2291 3584 
Q 2894 3584 3203 3211 
Q 3513 2838 3513 2113 
z
" transform="scale(0.015625)"/>
       <path id="DejaVuSans-69" d="M 603 3500 
L 1178 3500 
L 1178 0 
L 603 0 
L 603 3500 
z
M 603 4863 
L 1178 4863 
L 1178 4134 
L 603 4134 
L 603 4863 
z
" transform="scale(0.015625)"/>
       <path id="DejaVuSans-66" d="M 2375 4863 
L 2375 4384 
L 1825 4384 
Q 1516 4384 1395 4259 
Q 1275 4134 1275 3809 
L 1275 3500 
L 2222 3500 
L 2222 3053 
L 1275 3053 
L 1275 0 
L 697 0 
L 697 3053 
L 147 3053 
L 147 3500 
L 697 3500 
L 697 3744 
Q 697 4328 969 4595 
Q 1241 4863 1831 4863 
L 2375 4863 
z
" transform="scale(0.015625)"/>
       <path id="DejaVuSans-54" d="M -19 4666 
L 3928 4666 
L 3928 4134 
L 2272 4134 
L 2272 0 
L 1638 0 
L 1638 4134 
L -19 4134 
L -19 4666 
z
" transform="scale(0.015625)"/>
       <path id="DejaVuSans-48" d="M 628 4666 
L 1259 4666 
L 1259 2753 
L 3553 2753 
L 3553 4666 
L 4184 4666 
L 4184 0 
L 3553 0 
L 3553 2222 
L 1259 2222 
L 1259 0 
L 628 0 
L 628 4666 
z
" transform="scale(0.015625)"/>
       <path id="DejaVuSans-7a" d="M 353 3500 
L 3084 3500 
L 3084 2975 
L 922 459 
L 3084 459 
L 3084 0 
L 275 0 
L 275 525 
L 2438 3041 
L 353 3041 
L 353 3500 
z
" transform="scale(0.015625)"/>
      </defs>
      <use xlink:href="#DejaVuSans-49"/>
      <use xlink:href="#DejaVuSans-6e" x="29.492188"/>
      <use xlink:href="#DejaVuSans-64" x="92.871094"/>
      <use xlink:href="#DejaVuSans-75" x="156.347656"/>
      <use xlink:href="#DejaVuSans-63" x="219.726562"/>
      <use xlink:href="#DejaVuSans-65" x="274.707031"/>
      <use xlink:href="#DejaVuSans-64" x="336.230469"/>
      <use xlink:href="#DejaVuSans-20" x="399.707031"/>
      <use xlink:href="#DejaVuSans-46" x="431.494141"/>
      <use xlink:href="#DejaVuSans-72" x="481.763672"/>
      <use xlink:href="#DejaVuSans-65" x="520.626953"/>
      <use xlink:href="#DejaVuSans-71" x="582.150391"/>
      <use xlink:href="#DejaVuSans-75" x="645.626953"/>
      <use xlink:href="#DejaVuSans-65" x="709.005859"/>
      <use xlink:href="#DejaVuSans-6e" x="770.529297"/>
      <use xlink:href="#DejaVuSans-63" x="833.908203"/>
      <use xlink:href="#DejaVuSans-79" x="888.888672"/>
      <use xlink:href="#DejaVuSans-20" x="948.068359"/>
      <use xlink:href="#DejaVuSans-53" x="979.855469"/>
      <use xlink:href="#DejaVuSans-68" x="1043.332031"/>
      <use xlink:href="#DejaVuSans-69" x="1106.710938"/>
      <use xlink:href="#DejaVuSans-66" x="1134.494141"/>
      <use xlink:href="#DejaVuSans-74" x="1167.949219"/>
      <use xlink:href="#DejaVuSans-20" x="1207.158203"/>
      <use xlink:href="#DejaVuSans-28" x="1238.945312"/>
      <use xlink:href="#DejaVuSans-54" x="1277.958984"/>
      <use xlink:href="#DejaVuSans-48" x="1339.042969"/>
      <use xlink:href="#DejaVuSans-7a" x="1414.238281"/>
      <use xlink:href="#DejaVuSans-29" x="1466.728516"/>
     </g>
    </g>
   </g>
   <g id="line2d_29">
    <path d="M 138.436364 218.16 
L 144.585124 218.16 
L 150.733884 218.16 
L 156.882645 218.16 
L 163.031405 218.16 
L 169.180165 218.16 
L 175.328926 218.16 
L 181.477686 218.16 
L 187.626446 218.16 
L 193.775207 218.16 
L 199.923967 218.16 
L 206.072727 218.16 
L 212.221488 218.16 
L 218.370248 218.16 
L 224.519008 218.16 
L 230.667769 218.16 
L 236.816529 218.16 
L 242.965289 218.160001 
L 249.11405 218.160003 
L 255.26281 218.160009 
L 261.41157 218.160029 
L 267.560331 218.160092 
L 273.709091 218.160277 
L 279.857851 218.160804 
L 286.006612 218.162236 
L 292.155372 218.165961 
L 298.304132 218.175235 
L 304.452893 218.197315 
L 310.601653 218.24758 
L 316.750413 218.356925 
L 322.899174 218.5841 
L 329.047934 219.034555 
L 335.196694 219.886288 
L 341.345455 221.420437 
L 347.494215 224.049423 
L 353.642975 228.328694 
L 359.791736 234.931382 
L 365.940496 244.562342 
L 372.089256 257.7942 
L 378.238017 274.82755 
L 384.386777 295.210409 
L 390.535537 317.590792 
L 396.684298 339.605275 
L 402.833058 358.00586 
L 408.981818 369.083421 
L 415.130579 369.36 
L 421.279339 356.417546 
L 427.428099 329.647082 
L 433.57686 290.680523 
L 439.72562 243.329508 
L 445.87438 192.990492 
L 452.02314 145.639477 
L 458.171901 106.672918 
L 464.320661 79.902454 
L 470.469421 66.96 
L 476.618182 67.236579 
L 482.766942 78.31414 
L 488.915702 96.714725 
L 495.064463 118.729208 
L 501.213223 141.109591 
L 507.361983 161.49245 
L 513.510744 178.5258 
L 519.659504 191.757658 
L 525.808264 201.388618 
L 531.957025 207.991306 
L 538.105785 212.270577 
L 544.254545 214.899563 
L 550.403306 216.433712 
L 556.552066 217.285445 
L 562.700826 217.7359 
L 568.849587 217.963075 
L 574.998347 218.07242 
L 581.147107 218.122685 
L 587.295868 218.144765 
L 593.444628 218.154039 
L 599.593388 218.157764 
L 605.742149 218.159196 
L 611.890909 218.159723 
L 618.039669 218.159908 
L 624.18843 218.159971 
L 630.33719 218.159991 
L 636.48595 218.159997 
L 642.634711 218.159999 
L 648.783471 218.16 
L 654.932231 218.16 
L 661.080992 218.16 
L 667.229752 218.16 
L 673.378512 218.16 
L 679.527273 218.16 
L 685.676033 218.16 
L 691.824793 218.16 
L 697.973554 218.16 
L 704.122314 218.16 
L 710.271074 218.16 
L 716.419835 218.16 
L 722.568595 218.16 
L 728.717355 218.16 
L 734.866116 218.16 
L 741.014876 218.16 
L 747.163636 218.16 
" clip-path="url(#p4f944df038)" style="fill: none; stroke: #1f77b4; stroke-width: 1.5; stroke-linecap: square"/>
    <defs>
     <path id="m1b21f2bea8" d="M 0 3 
C 0.795609 3 1.55874 2.683901 2.12132 2.12132 
C 2.683901 1.55874 3 0.795609 3 0 
C 3 -0.795609 2.683901 -1.55874 2.12132 -2.12132 
C 1.55874 -2.683901 0.795609 -3 0 -3 
C -0.795609 -3 -1.55874 -2.683901 -2.12132 -2.12132 
C -2.683901 -1.55874 -3 -0.795609 -3 0 
C -3 0.795609 -2.683901 1.55874 -2.12132 2.12132 
C -1.55874 2.683901 -0.795609 3 0 3 
z
" style="stroke: #1f77b4"/>
    </defs>
    <g clip-path="url(#p4f944df038)">
     <use xlink:href="#m1b21f2bea8" x="138.436364" y="218.16" style="fill: #1f77b4; stroke: #1f77b4"/>
     <use xlink:href="#m1b21f2bea8" x="144.585124" y="218.16" style="fill: #1f77b4; stroke: #1f77b4"/>
     <use xlink:href="#m1b21f2bea8" x="150.733884" y="218.16" style="fill: #1f77b4; stroke: #1f77b4"/>
     <use xlink:href="#m1b21f2bea8" x="156.882645" y="218.16" style="fill: #1f77b4; stroke: #1f77b4"/>
     <use xlink:href="#m1b21f2bea8" x="163.031405" y="218.16" style="fill: #1f77b4; stroke: #1f77b4"/>
     <use xlink:href="#m1b21f2bea8" x="169.180165" y="218.16" style="fill: #1f77b4; stroke: #1f77b4"/>
     <use xlink:href="#m1b21f2bea8" x="175.328926" y="218.16" style="fill: #1f77b4; stroke: #1f77b4"/>
     <use xlink:href="#m1b21f2bea8" x="181.477686" y="218.16" style="fill: #1f77b4; stroke: #1f77b4"/>
     <use xlink:href="#m1b21f2bea8" x="187.626446" y="218.16" style="fill: #1f77b4; stroke: #1f77b4"/>
     <use xlink:href="#m1b21f2bea8" x="193.775207" y="218.16" style="fill: #1f77b4; stroke: #1f77b4"/>
     <use xlink:href="#m1b21f2bea8" x="199.923967" y="218.16" style="fill: #1f77b4; stroke: #1f77b4"/>
     <use xlink:href="#m1b21f2bea8" x="206.072727" y="218.16" style="fill: #1f77b4; stroke: #1f77b4"/>
     <use xlink:href="#m1b21f2bea8" x="212.221488" y="218.16" style="fill: #1f77b4; stroke: #1f77b4"/>
     <use xlink:href="#m1b21f2bea8" x="218.370248" y="218.16" style="fill: #1f77b4; stroke: #1f77b4"/>
     <use xlink:href="#m1b21f2bea8" x="224.519008" y="218.16" style="fill: #1f77b4; stroke: #1f77b4"/>
     <use xlink:href="#m1b21f2bea8" x="230.667769" y="218.16" style="fill: #1f77b4; stroke: #1f77b4"/>
     <use xlink:href="#m1b21f2bea8" x="236.816529" y="218.16" style="fill: #1f77b4; stroke: #1f77b4"/>
     <use xlink:href="#m1b21f2bea8" x="242.965289" y="218.160001" style="fill: #1f77b4; stroke: #1f77b4"/>
     <use xlink:href="#m1b21f2bea8" x="249.11405" y="218.160003" style="fill: #1f77b4; stroke: #1f77b4"/>
     <use xlink:href="#m1b21f2bea8" x="255.26281" y="218.160009" style="fill: #1f77b4; stroke: #1f77b4"/>
     <use xlink:href="#m1b21f2bea8" x="261.41157" y="218.160029" style="fill: #1f77b4; stroke: #1f77b4"/>
     <use xlink:href="#m1b21f2bea8" x="267.560331" y="218.160092" style="fill: #1f77b4; stroke: #1f77b4"/>
     <use xlink:href="#m1b21f2bea8" x="273.709091" y="218.160277" style="fill: #1f77b4; stroke: #1f77b4"/>
     <use xlink:href="#m1b21f2bea8" x="279.857851" y="218.160804" style="fill: #1f77b4; stroke: #1f77b4"/>
     <use xlink:href="#m1b21f2bea8" x="286.006612" y="218.162236" style="fill: #1f77b4; stroke: #1f77b4"/>
     <use xlink:href="#m1b21f2bea8" x="292.155372" y="218.165961" style="fill: #1f77b4; stroke: #1f77b4"/>
     <use xlink:href="#m1b21f2bea8" x="298.304132" y="218.175235" style="fill: #1f77b4; stroke: #1f77b4"/>
     <use xlink:href="#m1b21f2bea8" x="304.452893" y="218.197315" style="fill: #1f77b4; stroke: #1f77b4"/>
     <use xlink:href="#m1b21f2bea8" x="310.601653" y="218.24758" style="fill: #1f77b4; stroke: #1f77b4"/>
     <use xlink:href="#m1b21f2bea8" x="316.750413" y="218.356925" style="fill: #1f77b4; stroke: #1f77b4"/>
     <use xlink:href="#m1b21f2bea8" x="322.899174" y="218.5841" style="fill: #1f77b4; stroke: #1f77b4"/>
     <use xlink:href="#m1b21f2bea8" x="329.047934" y="219.034555" style="fill: #1f77b4; stroke: #1f77b4"/>
     <use xlink:href="#m1b21f2bea8" x="335.196694" y="219.886288" style="fill: #1f77b4; stroke: #1f77b4"/>
     <use xlink:href="#m1b21f2bea8" x="341.345455" y="221.420437" style="fill: #1f77b4; stroke: #1f77b4"/>
     <use xlink:href="#m1b21f2bea8" x="347.494215" y="224.049423" style="fill: #1f77b4; stroke: #1f77b4"/>
     <use xlink:href="#m1b21f2bea8" x="353.642975" y="228.328694" style="fill: #1f77b4; stroke: #1f77b4"/>
     <use xlink:href="#m1b21f2bea8" x="359.791736" y="234.931382" style="fill: #1f77b4; stroke: #1f77b4"/>
     <use xlink:href="#m1b21f2bea8" x="365.940496" y="244.562342" style="fill: #1f77b4; stroke: #1f77b4"/>
     <use xlink:href="#m1b21f2bea8" x="372.089256" y="257.7942" style="fill: #1f77b4; stroke: #1f77b4"/>
     <use xlink:href="#m1b21f2bea8" x="378.238017" y="274.82755" style="fill: #1f77b4; stroke: #1f77b4"/>
     <use xlink:href="#m1b21f2bea8" x="384.386777" y="295.210409" style="fill: #1f77b4; stroke: #1f77b4"/>
     <use xlink:href="#m1b21f2bea8" x="390.535537" y="317.590792" style="fill: #1f77b4; stroke: #1f77b4"/>
     <use xlink:href="#m1b21f2bea8" x="396.684298" y="339.605275" style="fill: #1f77b4; stroke: #1f77b4"/>
     <use xlink:href="#m1b21f2bea8" x="402.833058" y="358.00586" style="fill: #1f77b4; stroke: #1f77b4"/>
     <use xlink:href="#m1b21f2bea8" x="408.981818" y="369.083421" style="fill: #1f77b4; stroke: #1f77b4"/>
     <use xlink:href="#m1b21f2bea8" x="415.130579" y="369.36" style="fill: #1f77b4; stroke: #1f77b4"/>
     <use xlink:href="#m1b21f2bea8" x="421.279339" y="356.417546" style="fill: #1f77b4; stroke: #1f77b4"/>
     <use xlink:href="#m1b21f2bea8" x="427.428099" y="329.647082" style="fill: #1f77b4; stroke: #1f77b4"/>
     <use xlink:href="#m1b21f2bea8" x="433.57686" y="290.680523" style="fill: #1f77b4; stroke: #1f77b4"/>
     <use xlink:href="#m1b21f2bea8" x="439.72562" y="243.329508" style="fill: #1f77b4; stroke: #1f77b4"/>
     <use xlink:href="#m1b21f2bea8" x="445.87438" y="192.990492" style="fill: #1f77b4; stroke: #1f77b4"/>
     <use xlink:href="#m1b21f2bea8" x="452.02314" y="145.639477" style="fill: #1f77b4; stroke: #1f77b4"/>
     <use xlink:href="#m1b21f2bea8" x="458.171901" y="106.672918" style="fill: #1f77b4; stroke: #1f77b4"/>
     <use xlink:href="#m1b21f2bea8" x="464.320661" y="79.902454" style="fill: #1f77b4; stroke: #1f77b4"/>
     <use xlink:href="#m1b21f2bea8" x="470.469421" y="66.96" style="fill: #1f77b4; stroke: #1f77b4"/>
     <use xlink:href="#m1b21f2bea8" x="476.618182" y="67.236579" style="fill: #1f77b4; stroke: #1f77b4"/>
     <use xlink:href="#m1b21f2bea8" x="482.766942" y="78.31414" style="fill: #1f77b4; stroke: #1f77b4"/>
     <use xlink:href="#m1b21f2bea8" x="488.915702" y="96.714725" style="fill: #1f77b4; stroke: #1f77b4"/>
     <use xlink:href="#m1b21f2bea8" x="495.064463" y="118.729208" style="fill: #1f77b4; stroke: #1f77b4"/>
     <use xlink:href="#m1b21f2bea8" x="501.213223" y="141.109591" style="fill: #1f77b4; stroke: #1f77b4"/>
     <use xlink:href="#m1b21f2bea8" x="507.361983" y="161.49245" style="fill: #1f77b4; stroke: #1f77b4"/>
     <use xlink:href="#m1b21f2bea8" x="513.510744" y="178.5258" style="fill: #1f77b4; stroke: #1f77b4"/>
     <use xlink:href="#m1b21f2bea8" x="519.659504" y="191.757658" style="fill: #1f77b4; stroke: #1f77b4"/>
     <use xlink:href="#m1b21f2bea8" x="525.808264" y="201.388618" style="fill: #1f77b4; stroke: #1f77b4"/>
     <use xlink:href="#m1b21f2bea8" x="531.957025" y="207.991306" style="fill: #1f77b4; stroke: #1f77b4"/>
     <use xlink:href="#m1b21f2bea8" x="538.105785" y="212.270577" style="fill: #1f77b4; stroke: #1f77b4"/>
     <use xlink:href="#m1b21f2bea8" x="544.254545" y="214.899563" style="fill: #1f77b4; stroke: #1f77b4"/>
     <use xlink:href="#m1b21f2bea8" x="550.403306" y="216.433712" style="fill: #1f77b4; stroke: #1f77b4"/>
     <use xlink:href="#m1b21f2bea8" x="556.552066" y="217.285445" style="fill: #1f77b4; stroke: #1f77b4"/>
     <use xlink:href="#m1b21f2bea8" x="562.700826" y="217.7359" style="fill: #1f77b4; stroke: #1f77b4"/>
     <use xlink:href="#m1b21f2bea8" x="568.849587" y="217.963075" style="fill: #1f77b4; stroke: #1f77b4"/>
     <use xlink:href="#m1b21f2bea8" x="574.998347" y="218.07242" style="fill: #1f77b4; stroke: #1f77b4"/>
     <use xlink:href="#m1b21f2bea8" x="581.147107" y="218.122685" style="fill: #1f77b4; stroke: #1f77b4"/>
     <use xlink:href="#m1b21f2bea8" x="587.295868" y="218.144765" style="fill: #1f77b4; stroke: #1f77b4"/>
     <use xlink:href="#m1b21f2bea8" x="593.444628" y="218.154039" style="fill: #1f77b4; stroke: #1f77b4"/>
     <use xlink:href="#m1b21f2bea8" x="599.593388" y="218.157764" style="fill: #1f77b4; stroke: #1f77b4"/>
     <use xlink:href="#m1b21f2bea8" x="605.742149" y="218.159196" style="fill: #1f77b4; stroke: #1f77b4"/>
     <use xlink:href="#m1b21f2bea8" x="611.890909" y="218.159723" style="fill: #1f77b4; stroke: #1f77b4"/>
     <use xlink:href="#m1b21f2bea8" x="618.039669" y="218.159908" style="fill: #1f77b4; stroke: #1f77b4"/>
     <use xlink:href="#m1b21f2bea8" x="624.18843" y="218.159971" style="fill: #1f77b4; stroke: #1f77b4"/>
     <use xlink:href="#m1b21f2bea8" x="630.33719" y="218.159991" style="fill: #1f77b4; stroke: #1f77b4"/>
     <use xlink:href="#m1b21f2bea8" x="636.48595" y="218.159997" style="fill: #1f77b4; stroke: #1f77b4"/>
     <use xlink:href="#m1b21f2bea8" x="642.634711" y="218.159999" style="fill: #1f77b4; stroke: #1f77b4"/>
     <use xlink:href="#m1b21f2bea8" x="648.783471" y="218.16" style="fill: #1f77b4; stroke: #1f77b4"/>
     <use xlink:href="#m1b21f2bea8" x="654.932231" y="218.16" style="fill: #1f77b4; stroke: #1f77b4"/>
     <use xlink:href="#m1b21f2bea8" x="661.080992" y="218.16" style="fill: #1f77b4; stroke: #1f77b4"/>
     <use xlink:href="#m1b21f2bea8" x="667.229752" y="218.16" style="fill: #1f77b4; stroke: #1f77b4"/>
     <use xlink:href="#m1b21f2bea8" x="673.378512" y="218.16" style="fill: #1f77b4; stroke: #1f77b4"/>
     <use xlink:href="#m1b21f2bea8" x="679.527273" y="218.16" style="fill: #1f77b4; stroke: #1f77b4"/>
     <use xlink:href="#m1b21f2bea8" x="685.676033" y="218.16" style="fill: #1f77b4; stroke: #1f77b4"/>
     <use xlink:href="#m1b21f2bea8" x="691.824793" y="218.16" style="fill: #1f77b4; stroke: #1f77b4"/>
     <use xlink:href="#m1b21f2bea8" x="697.973554" y="218.16" style="fill: #1f77b4; stroke: #1f77b4"/>
     <use xlink:href="#m1b21f2bea8" x="704.122314" y="218.16" style="fill: #1f77b4; stroke: #1f77b4"/>
     <use xlink:href="#m1b21f2bea8" x="710.271074" y="218.16" style="fill: #1f77b4; stroke: #1f77b4"/>
     <use xlink:href="#m1b21f2bea8" x="716.419835" y="218.16" style="fill: #1f77b4; stroke: #1f77b4"/>
     <use xlink:href="#m1b21f2bea8" x="722.568595" y="218.16" style="fill: #1f77b4; stroke: #1f77b4"/>
     <use xlink:href="#m1b21f2bea8" x="728.717355" y="218.16" style="fill: #1f77b4; stroke: #1f77b4"/>
     <use xlink:href="#m1b21f2bea8" x="734.866116" y="218.16" style="fill: #1f77b4; stroke: #1f77b4"/>
     <use xlink:href="#m1b21f2bea8" x="741.014876" y="218.16" style="fill: #1f77b4; stroke: #1f77b4"/>
     <use xlink:href="#m1b21f2bea8" x="747.163636" y="218.16" style="fill: #1f77b4; stroke: #1f77b4"/>
    </g>
   </g>
   <g id="patch_3">
    <path d="M 108 384.48 
L 108 51.84 
" style="fill: none; stroke: #000000; stroke-width: 0.8; stroke-linejoin: miter; stroke-linecap: square"/>
   </g>
   <g id="patch_4">
    <path d="M 777.6 384.48 
L 777.6 51.84 
" style="fill: none; stroke: #000000; stroke-width: 0.8; stroke-linejoin: miter; stroke-linecap: square"/>
   </g>
   <g id="patch_5">
    <path d="M 108 384.48 
L 777.6 384.48 
" style="fill: none; stroke: #000000; stroke-width: 0.8; stroke-linejoin: miter; stroke-linecap: square"/>
   </g>
   <g id="patch_6">
    <path d="M 108 51.84 
L 777.6 51.84 
" style="fill: none; stroke: #000000; stroke-width: 0.8; stroke-linejoin: miter; stroke-linecap: square"/>
   </g>
   <g id="text_17">
    <!-- Induced Frequency Shift of 532 nm Probe Pulse due to XPM with 1064 nm Pump Pulse -->
    <g transform="translate(185.235 45.84) scale(0.12 -0.12)">
     <defs>
      <path id="DejaVuSans-33" d="M 2597 2516 
Q 3050 2419 3304 2112 
Q 3559 1806 3559 1356 
Q 3559 666 3084 287 
Q 2609 -91 1734 -91 
Q 1441 -91 1130 -33 
Q 819 25 488 141 
L 488 750 
Q 750 597 1062 519 
Q 1375 441 1716 441 
Q 2309 441 2620 675 
Q 2931 909 2931 1356 
Q 2931 1769 2642 2001 
Q 2353 2234 1838 2234 
L 1294 2234 
L 1294 2753 
L 1863 2753 
Q 2328 2753 2575 2939 
Q 2822 3125 2822 3475 
Q 2822 3834 2567 4026 
Q 2313 4219 1838 4219 
Q 1578 4219 1281 4162 
Q 984 4106 628 3988 
L 628 4550 
Q 988 4650 1302 4700 
Q 1616 4750 1894 4750 
Q 2613 4750 3031 4423 
Q 3450 4097 3450 3541 
Q 3450 3153 3228 2886 
Q 3006 2619 2597 2516 
z
" transform="scale(0.015625)"/>
      <path id="DejaVuSans-58" d="M 403 4666 
L 1081 4666 
L 2241 2931 
L 3406 4666 
L 4084 4666 
L 2584 2425 
L 4184 0 
L 3506 0 
L 2194 1984 
L 872 0 
L 191 0 
L 1856 2491 
L 403 4666 
z
" transform="scale(0.015625)"/>
      <path id="DejaVuSans-4d" d="M 628 4666 
L 1569 4666 
L 2759 1491 
L 3956 4666 
L 4897 4666 
L 4897 0 
L 4281 0 
L 4281 4097 
L 3078 897 
L 2444 897 
L 1241 4097 
L 1241 0 
L 628 0 
L 628 4666 
z
" transform="scale(0.015625)"/>
      <path id="DejaVuSans-36" d="M 2113 2584 
Q 1688 2584 1439 2293 
Q 1191 2003 1191 1497 
Q 1191 994 1439 701 
Q 1688 409 2113 409 
Q 2538 409 2786 701 
Q 3034 994 3034 1497 
Q 3034 2003 2786 2293 
Q 2538 2584 2113 2584 
z
M 3366 4563 
L 3366 3988 
Q 3128 4100 2886 4159 
Q 2644 4219 2406 4219 
Q 1781 4219 1451 3797 
Q 1122 3375 1075 2522 
Q 1259 2794 1537 2939 
Q 1816 3084 2150 3084 
Q 2853 3084 3261 2657 
Q 3669 2231 3669 1497 
Q 3669 778 3244 343 
Q 2819 -91 2113 -91 
Q 1303 -91 875 529 
Q 447 1150 447 2328 
Q 447 3434 972 4092 
Q 1497 4750 2381 4750 
Q 2619 4750 2861 4703 
Q 3103 4656 3366 4563 
z
" transform="scale(0.015625)"/>
     </defs>
     <use xlink:href="#DejaVuSans-49"/>
     <use xlink:href="#DejaVuSans-6e" x="29.492188"/>
     <use xlink:href="#DejaVuSans-64" x="92.871094"/>
     <use xlink:href="#DejaVuSans-75" x="156.347656"/>
     <use xlink:href="#DejaVuSans-63" x="219.726562"/>
     <use xlink:href="#DejaVuSans-65" x="274.707031"/>
     <use xlink:href="#DejaVuSans-64" x="336.230469"/>
     <use xlink:href="#DejaVuSans-20" x="399.707031"/>
     <use xlink:href="#DejaVuSans-46" x="431.494141"/>
     <use xlink:href="#DejaVuSans-72" x="481.763672"/>
     <use xlink:href="#DejaVuSans-65" x="520.626953"/>
     <use xlink:href="#DejaVuSans-71" x="582.150391"/>
     <use xlink:href="#DejaVuSans-75" x="645.626953"/>
     <use xlink:href="#DejaVuSans-65" x="709.005859"/>
     <use xlink:href="#DejaVuSans-6e" x="770.529297"/>
     <use xlink:href="#DejaVuSans-63" x="833.908203"/>
     <use xlink:href="#DejaVuSans-79" x="888.888672"/>
     <use xlink:href="#DejaVuSans-20" x="948.068359"/>
     <use xlink:href="#DejaVuSans-53" x="979.855469"/>
     <use xlink:href="#DejaVuSans-68" x="1043.332031"/>
     <use xlink:href="#DejaVuSans-69" x="1106.710938"/>
     <use xlink:href="#DejaVuSans-66" x="1134.494141"/>
     <use xlink:href="#DejaVuSans-74" x="1167.949219"/>
     <use xlink:href="#DejaVuSans-20" x="1207.158203"/>
     <use xlink:href="#DejaVuSans-6f" x="1238.945312"/>
     <use xlink:href="#DejaVuSans-66" x="1300.126953"/>
     <use xlink:href="#DejaVuSans-20" x="1335.332031"/>
     <use xlink:href="#DejaVuSans-35" x="1367.119141"/>
     <use xlink:href="#DejaVuSans-33" x="1430.742188"/>
     <use xlink:href="#DejaVuSans-32" x="1494.365234"/>
     <use xlink:href="#DejaVuSans-20" x="1557.988281"/>
     <use xlink:href="#DejaVuSans-6e" x="1589.775391"/>
     <use xlink:href="#DejaVuSans-6d" x="1653.154297"/>
     <use xlink:href="#DejaVuSans-20" x="1750.566406"/>
     <use xlink:href="#DejaVuSans-50" x="1782.353516"/>
     <use xlink:href="#DejaVuSans-72" x="1840.90625"/>
     <use xlink:href="#DejaVuSans-6f" x="1879.769531"/>
     <use xlink:href="#DejaVuSans-62" x="1940.951172"/>
     <use xlink:href="#DejaVuSans-65" x="2004.427734"/>
     <use xlink:href="#DejaVuSans-20" x="2065.951172"/>
     <use xlink:href="#DejaVuSans-50" x="2097.738281"/>
     <use xlink:href="#DejaVuSans-75" x="2156.291016"/>
     <use xlink:href="#DejaVuSans-6c" x="2219.669922"/>
     <use xlink:href="#DejaVuSans-73" x="2247.453125"/>
     <use xlink:href="#DejaVuSans-65" x="2299.552734"/>
     <use xlink:href="#DejaVuSans-20" x="2361.076172"/>
     <use xlink:href="#DejaVuSans-64" x="2392.863281"/>
     <use xlink:href="#DejaVuSans-75" x="2456.339844"/>
     <use xlink:href="#DejaVuSans-65" x="2519.71875"/>
     <use xlink:href="#DejaVuSans-20" x="2581.242188"/>
     <use xlink:href="#DejaVuSans-74" x="2613.029297"/>
     <use xlink:href="#DejaVuSans-6f" x="2652.238281"/>
     <use xlink:href="#DejaVuSans-20" x="2713.419922"/>
     <use xlink:href="#DejaVuSans-58" x="2745.207031"/>
     <use xlink:href="#DejaVuSans-50" x="2813.712891"/>
     <use xlink:href="#DejaVuSans-4d" x="2874.015625"/>
     <use xlink:href="#DejaVuSans-20" x="2960.294922"/>
     <use xlink:href="#DejaVuSans-77" x="2992.082031"/>
     <use xlink:href="#DejaVuSans-69" x="3073.869141"/>
     <use xlink:href="#DejaVuSans-74" x="3101.652344"/>
     <use xlink:href="#DejaVuSans-68" x="3140.861328"/>
     <use xlink:href="#DejaVuSans-20" x="3204.240234"/>
     <use xlink:href="#DejaVuSans-31" x="3236.027344"/>
     <use xlink:href="#DejaVuSans-30" x="3299.650391"/>
     <use xlink:href="#DejaVuSans-36" x="3363.273438"/>
     <use xlink:href="#DejaVuSans-34" x="3426.896484"/>
     <use xlink:href="#DejaVuSans-20" x="3490.519531"/>
     <use xlink:href="#DejaVuSans-6e" x="3522.306641"/>
     <use xlink:href="#DejaVuSans-6d" x="3585.685547"/>
     <use xlink:href="#DejaVuSans-20" x="3683.097656"/>
     <use xlink:href="#DejaVuSans-50" x="3714.884766"/>
     <use xlink:href="#DejaVuSans-75" x="3773.4375"/>
     <use xlink:href="#DejaVuSans-6d" x="3836.816406"/>
     <use xlink:href="#DejaVuSans-70" x="3934.228516"/>
     <use xlink:href="#DejaVuSans-20" x="3997.705078"/>
     <use xlink:href="#DejaVuSans-50" x="4029.492188"/>
     <use xlink:href="#DejaVuSans-75" x="4088.044922"/>
     <use xlink:href="#DejaVuSans-6c" x="4151.423828"/>
     <use xlink:href="#DejaVuSans-73" x="4179.207031"/>
     <use xlink:href="#DejaVuSans-65" x="4231.306641"/>
    </g>
   </g>
  </g>
 </g>
 <defs>
  <clipPath id="p4f944df038">
   <rect x="108" y="51.84" width="669.6" height="332.64"/>
  </clipPath>
 </defs>
</svg>
